<?xml version="1.0" encoding="utf-8"?><svg xmlns="http://www.w3.org/2000/svg" width="135" height="26" viewBox="61 -7 135 26" fill="#fff"><path class="st0" d="M69.6-6.5c3.8.1 6.6 1.2 8.5 3.2S81 1.8 81 6s-1 7.3-2.9 9.3-4.7 3.1-8.5 3.2H61v-25h8.6zm-1.2 23c1.8 0 3.3-.2 4.6-.6s2.3-1 3.2-1.8c.8-.8 1.4-1.9 1.8-3.3.4-1.3.6-2.9.6-4.8s-.2-3.5-.6-4.8-1-2.4-1.8-3.3c-.8-.8-1.9-1.5-3.2-1.8-1.3-.4-2.8-.6-4.6-.6h-5v20.9h5v.1zM84.1-6.5l5.6 21.9h.1l6-21.9h2.9l6.1 21.9h.1l5.7-21.9h2.4l-6.8 25h-2.5L97.3-3.9h-.1L91 18.5h-2.6l-6.9-25h2.6zM114.2 1.1c.5-1.6 1.2-2.9 2.2-4.1s2.2-2.2 3.7-2.9 3.2-1.1 5.1-1.1 3.6.4 5.1 1.1 2.7 1.7 3.6 2.9c1 1.2 1.7 2.6 2.2 4.1.5 1.6.7 3.2.7 4.9s-.2 3.4-.7 4.9c-.5 1.6-1.2 2.9-2.2 4.1s-2.2 2.1-3.6 2.9c-1.5.7-3.2 1.1-5.1 1.1s-3.6-.4-5.1-1.1-2.7-1.7-3.7-2.9-1.7-2.6-2.2-4.1c-.5-1.6-.7-3.2-.7-4.9s.3-3.4.7-4.9zm2.2 8.9c.4 1.3.9 2.5 1.7 3.5.8 1 1.7 1.9 2.9 2.5 1.2.6 2.6.9 4.2.9s3-.3 4.2-.9 2.1-1.5 2.9-2.5 1.3-2.2 1.7-3.5.5-2.7.5-4c0-1.4-.2-2.7-.5-4-.4-1.3-.9-2.5-1.7-3.5s-1.7-1.9-2.9-2.5c-1.1-.7-2.6-1-4.2-1s-3 .3-4.2 1c-1.2.6-2.1 1.5-2.9 2.5S116.8.7 116.4 2c-.4 1.3-.5 2.6-.5 4s.2 2.7.5 4zM142.2-6.5v23h13.9v2h-16.3v-25h2.4zM160.8-6.5v23h13.9v2h-16.2v-25h2.3z" fill="#ffffff"></path><path class="st0" d="M186.3-6.5l9.7 25h-2.5l-3-7.8h-11.3l-3 7.8h-2.5l10-25h2.6zm3.4 15.2l-4.8-12.8-5 12.8h9.8z" fill="#ffffff"></path></svg>