<?xml version="1.0" encoding="utf-8"?><svg id="Layer_1" xmlns="http://www.w3.org/2000/svg" width="170" height="60" viewBox="0 0 170 60"><style>.st0{fill:#596974}</style><path class="st0" d="M96.5 34.9c-.9 0-1.7-.2-2.6-.5-.7-.3-1.4-.7-1.9-1.2-.6-.5-.9-1.1-1.2-1.8-.3-.7-.5-1.5-.5-2.4 0-.8.2-1.6.5-2.4.3-.7.6-1.4 1.2-1.8.6-.6 1.1-.9 1.8-1.2.7-.3 1.6-.5 2.5-.5.5 0 .9 0 1.3.1s.7.2 1.1.3c.4.1.6.3.9.5s.6.4.8.6l-.6.8c-.1.1-.2.2-.4.3-.1 0-.3 0-.5-.1s-.3-.2-.5-.3l-.6-.3c-.2-.1-.5-.2-.7-.2-.3-.1-.6-.1-1-.1-.6 0-1.2.1-1.7.3-.5.2-.9.5-1.3.8-.4.4-.6.8-.8 1.4-.2.6-.3 1.1-.3 1.7s.1 1.3.3 1.8c.2.5.5 1 .8 1.4.4.4.8.6 1.3.8.6.2 1.1.3 1.7.3.5 0 .9-.1 1.3-.2s.7-.3 1.1-.5v-2.3h-1.7c-.1 0-.2 0-.3-.1-.1-.1-.1-.2-.1-.3v-1.1h3.7v4.6c-.7 1.2-2.1 1.6-3.6 1.6"/><path class="st0" d="M96.5 34.9c-.9 0-1.7-.2-2.6-.5-.7-.3-1.4-.7-1.9-1.2-.6-.5-.9-1.1-1.2-1.8-.3-.7-.5-1.5-.5-2.4 0-.8.2-1.6.5-2.4.3-.7.6-1.4 1.2-1.8.6-.6 1.1-.9 1.8-1.2.7-.3 1.6-.5 2.5-.5.5 0 .9 0 1.3.1s.7.2 1.1.3c.4.1.6.3.9.5s.6.4.8.6l-.6.8c-.1.1-.2.2-.4.3-.1 0-.3 0-.5-.1s-.3-.2-.5-.3l-.6-.3c-.2-.1-.5-.2-.7-.2-.3-.1-.6-.1-1-.1-.6 0-1.2.1-1.7.3-.5.2-.9.5-1.3.8-.4.4-.6.8-.8 1.4-.2.6-.3 1.1-.3 1.7s.1 1.3.3 1.8c.2.5.5 1 .8 1.4.4.4.8.6 1.3.8.6.2 1.1.3 1.7.3.5 0 .9-.1 1.3-.2s.7-.3 1.1-.5v-2.3h-1.7c-.1 0-.2 0-.3-.1-.1-.1-.1-.2-.1-.3v-1.1h3.7v4.6c-.7 1.2-2.1 1.6-3.6 1.6M116.4 29c0 .8-.2 1.7-.5 2.4s-.6 1.4-1.2 1.8c-.5.6-1.1.9-1.8 1.2-.7.3-1.5.5-2.4.5-.8 0-1.7-.2-2.4-.5s-1.3-.7-1.8-1.2c-.6-.5-.9-1.1-1.2-1.8-.3-.7-.2-1.6-.2-2.4s.2-1.6.5-2.4c.3-.7.6-1.4 1.2-1.8.6-.6 1.1-.9 1.8-1.2.7-.3 1.5-.5 2.4-.5.8 0 1.7.2 2.4.5s1.3.7 1.8 1.2.9 1.1 1.2 1.8c.3.8.2 1.6.2 2.4m-1.8 0c0-.6-.1-1.3-.3-1.7-.2-.5-.5-1-.7-1.4-.4-.4-.7-.6-1.2-.8-.5-.2-1-.3-1.6-.3s-1.1.1-1.6.3c-.5.2-.9.5-1.2.8-.4.4-.6.8-.7 1.4-.2.5-.3 1.1-.3 1.7s.1 1.3.3 1.8c.2.5.5 1 .7 1.4.4.4.7.6 1.2.8s1 .3 1.6.3 1.1-.1 1.6-.3.9-.5 1.2-.8c.4-.4.6-.8.7-1.4.2-.5.3-1.1.3-1.8M130.4 34.8h-1.5c-.2 0-.3 0-.4-.1l-.3-.3-.9-2.6h-5l-.9 2.6c0 .1-.1.2-.2.3s-.3.1-.4.1h-1.5l4.7-11.5h1.9l4.5 11.5zm-7.6-4.3h4l-1.6-4.2c-.1-.2-.1-.4-.2-.6s-.1-.5-.2-.6c-.1.3-.1.5-.2.7s-.1.4-.2.6l-1.6 4.1zM141.1 23.3v1.6h-3.6v10h-1.9v-10H132v-1.6h9.1zM56.9 25.3c0 .5-.5 1-1 1-.6 0-1-.5-1-1s.5-1 1-1c.6 0 1 .4 1 1"/><path class="st0" d="M56.9 25.3c0 .5-.5 1-1 1-.6 0-1-.5-1-1s.5-1 1-1c.6 0 1 .4 1 1"/><path class="st0" d="M52.4 4.3C38.7 4.3 27.6 15.4 27.6 29c0 13.7 11.1 24.8 24.8 24.8S77.2 42.7 77.2 29C77.2 15.4 66 4.3 52.4 4.3M30.9 36.5h6.2c.2 0 .4-.1.6-.2.2-.2 4.4-3.3 6.3-5.7.6.2 1.3.4 2 .4 3.6 0 6.4-2.8 6.4-6.4 0-.2-.2-.4-.4-.4h-1c-.2 0-.4.2-.4.4 0 2.6-2 4.6-4.6 4.6-2.3 0-4.1-1.7-4.5-3.9.2-.1 7.4-2.8 7.8-3 .1-.1.2-.1.3-.2.6.1 1.1.2 2.4-.5.6-.3 1-.7 1.2-1.2l16.3 9.3v1.9h-1.1c-.2 0-.4.2-.4.4v1c0 .2.2.4.4.4h.6l-.4 2-1.3.1c-.5 0-.7.4-.8.7l-.9 5.7c-2.5-.2-3.9-1.9-4.4-5.4-.1-.5-.5-.7-.9-.7l-3.8.1H52c-.2 0-.4.2-.4.4v1c0 .2.2.4.4.4h1.6l-2.7 14c-9.3-.6-17-6.8-20-15.2m21.9 15.3l2.7-14h1l2.9-.1c.8 4.1 3 6.1 6.5 6.2h.4c.5 0 .8-.4.9-.7l.9-5.8 1.3-.1c.5 0 .7-.4.8-.7l.5-3.1c.3-.2.6-.5.6-.8v-3.4c0-.4-.2-.6-.5-.8l-17.4-9.9c-.6-.5-4.6-3.4-9.7-3.4-2.3 0-4.5.6-6.4 1.8-.8.4-.8.9-.8 1.2.2.8.8.9 2.8 1 2.2.1 7.1.3 8.5 1.8-1.9.8-6.3 2.5-7.2 2.8-.4.1-.8.5-.8 1 0 2.1 1.1 3.9 2.7 5.1-1.6 1.8-4.7 4.2-5.6 5h-6.6c-.5-1.8-.7-3.7-.7-5.6 0-12.6 10.2-22.7 22.8-22.7s22.8 10.2 22.8 22.7c-.1 12.1-10 22.3-22.4 22.5"/></svg>