<?xml version="1.0" encoding="utf-8"?><svg id="Layer_1" xmlns="http://www.w3.org/2000/svg" width="170" height="60" viewBox="0 0 170 60"><style>.st0{fill:#596974}</style><path class="st0" d="M4.8 27.2v-4.6l1.5.1V10.3l-1.5.1V5.8h11.7c.9 0 1.6.1 2.1.2s.9.3 1.4.6c.5.4.9.8 1.1 1.4s.3 1.3.3 2.3v1.8c0 2.2-1 3.5-3.2 3.9 1.1.3 2 .8 2.5 1.5.5.6.7 1.6.7 2.7v2.1c0 1.8-.4 3-1.1 3.7s-2 1.1-3.7 1.1l-11.8.1zm7.4-12.9h3.4v-4h-3.4v4zm0 8.4h3.4v-4.5h-3.4v4.5zM23.3 27.2v-4.6l1.5.1V10.3l-1.5.1V5.8h8.8v4.6l-1.5-.1v12.4h2.6v-3.8h5.5v8.3H23.3zM41.2 10.3l-1.5.1V5.8H47v16.9h3.3V5.8h7.3v4.6l-1.5-.1v12.4c0 .9-.1 1.5-.2 2s-.4.9-.8 1.3c-.4.5-.9.8-1.5 1s-1.4.3-2.4.3h-5.1c-1 0-1.9-.1-2.4-.3-.6-.2-1.1-.5-1.5-1-.7-.7-1-1.8-1-3.3V10.3zM59 27.2v-4.6l1.5.1V10.3l-1.5.1V5.8h15.5v6.9h-4.9v-2.4h-3.2v4h4.5v3.9h-4.5v4.5h3.2V20h5.1v7.2H59zM75.8 27.2v-4.5l7.8-12.5h-3v1.5H76V5.8h14.4v4.3l-7.9 12.6H86v-2.2h4.6v6.7H75.8zM91.8 27.2v-4.6l1.5.1V10.3l-1.5.1V5.8h15.5v6.9h-4.9v-2.4h-3.2v4h4.5v3.9h-4.5v4.5h3.2V20h5.1v7.2H91.8zM109.1 27.2v-4.6l1.5.1V10.3l-1.5.1V5.8h11.8c3.1 0 4.8 1.2 4.8 4.5 0 2.6.1 5.1-3.2 5.8 3.5 1.1 3.3 3.9 3.2 7-2.8 1-5.5 2.5-7.9 4.2l-8.7-.1c0 .1 0 0 0 0zm7.4-4.5h3.5v-4.5h-3.5v4.5zm0-8.4h3.5v-4h-3.5v4zM129.1 21.9V10.3l-1.5.1V5.8h11.7c3.3 0 4.9 1.5 4.8 4.5 0 2.9.2 4.9-2.9 6.2 2.6.7 2.9 2.5 2.9 4.6-1.9-.3-3.9-.5-5.8-.5v-2h-3.4v2.2c-1.9.1-3.9.5-5.8 1.1zm5.8-7.4h3.4v-4.2h-3.4v4.2zM148.6 20.2l2.7-14.4h9.2l3.3 16.9 1.5-.1v4.6h-6.2c-.3-.7-.6-1.4-1-2l-.4-3.2h-3.3v.2c-1.2-.5-2.5-.7-3.8-.6 0-.5-.1-.9-.2-1.4h-1.8zm6.1-2h2.6L156 9.8l-1.3 8.4zM7.5 37.4L9 35.2c.3.4.7.7 1.1.9.4.2.8.3 1.2.3.2 0 .3 0 .4-.1.1-.1.2-.1.2-.2 0-.2-.2-.3-.7-.5-.1 0-.2-.1-.2-.1-.7-.3-1.3-.6-1.6-1s-.5-.8-.5-1.4c0-.9.3-1.6 1-2.1s1.5-.8 2.6-.8c.6 0 1.2.1 1.7.3.5.2 1 .4 1.4.8l-1.2 2c-.3-.3-.7-.5-.9-.7-.3-.1-.5-.2-.8-.2-.1 0-.3 0-.3.1-.1.1-.1.2-.1.3 0 .2.3.4.8.6.1.1.2.1.3.1.7.3 1.1.6 1.4 1 .3.4.4.8.4 1.4 0 .9-.3 1.6-1 2.2s-1.6.9-2.6.9c-.7 0-1.3-.1-2-.4-.9-.3-1.5-.7-2.1-1.2zM23.7 38.7l1.6-8.2h3.3c1.3 0 2.2.2 2.8.7.6.4.9 1.1.9 2 0 1-.3 1.7-1 2.2s-1.6.8-2.8.8h-1.2l-.5 2.5h-3.1zm4.1-4.7h.2c.5 0 .8-.1 1-.2.2-.1.3-.3.3-.6 0-.2-.1-.4-.3-.5-.2-.1-.5-.1-.9-.1H28l-.2 1.4zM45.9 38.9c-.6 0-1.2-.1-1.7-.2-.5-.2-.9-.4-1.3-.7-.4-.3-.7-.8-1-1.3-.2-.5-.3-1-.3-1.6s.1-1.2.3-1.7.5-1 .9-1.5c.5-.5 1-.9 1.7-1.2.7-.3 1.4-.4 2.1-.4 1.3 0 2.3.4 3.1 1.1s1.2 1.6 1.2 2.8c0 .6-.1 1.2-.3 1.7s-.5 1-.9 1.4c-.5.5-1 .9-1.7 1.2-.6.3-1.3.4-2.1.4zm.5-5.9c-.5 0-.9.2-1.2.5s-.5.8-.5 1.2.1.8.4 1c.3.3.6.4 1 .4.5 0 .9-.2 1.2-.5s.5-.8.5-1.3c0-.4-.1-.7-.4-1-.2-.2-.6-.3-1-.3zM60 38.7l1.6-8.2h3.3c1.2 0 2.2.2 2.8.6.6.4 1 1 1 1.8 0 .7-.2 1.3-.6 1.7-.4.5-.9.7-1.6.9l1.2 3.2h-3.2l-.9-3-.6 3h-3zm3.9-4.6h.3c.5 0 .8-.1 1-.2s.3-.4.3-.7c0-.2-.1-.4-.3-.5-.2-.1-.5-.2-.8-.2h-.2l-.3 1.6zM78.6 38.7l1.1-5.7h-1.8l.5-2.5H85l-.5 2.5h-1.8l-1.1 5.7h-3zM92.5 37.4l1.5-2.2c.3.4.7.7 1.1.9s.8.3 1.2.3c.2 0 .3 0 .4-.1s.2-.1.2-.2c0-.2-.2-.3-.7-.5-.1 0-.2-.1-.2-.1-.7-.3-1.3-.6-1.6-1-.3-.4-.5-.8-.5-1.4 0-.9.3-1.6 1-2.1s1.5-.8 2.6-.8c.6 0 1.2.1 1.7.3.5.2 1 .4 1.4.8l-1.2 2c-.3-.3-.7-.5-.9-.7-.3-.1-.5-.2-.8-.2-.1 0-.3 0-.3.1-.1.1-.1.2-.1.3 0 .2.3.4.8.6.1.1.2.1.3.1.7.3 1.1.6 1.4 1s.4.8.4 1.4c0 .9-.3 1.6-1 2.2s-1.6.9-2.6.9c-.7 0-1.3-.1-2-.4-.9-.3-1.5-.7-2.1-1.2zM143.5 31.7c.6 3.4.6 5.7 4.4 7.2L153 41c2.6 1.1 1.8 7 6.1 5.6 2.7-.8 5-5.4 1.9-7.6-1.1.3-2.2.2-3.3.5-.8.2-1.5 1-2 1.5-.1.1-2.4-1.7-3.2-1.9-3.6-.9-8.3-3.4-9-7.4z"/><path class="st0" d="M160.3 38.3c-1.1-1.4-1.6-2.8-2-4.5-.3-1.3.1-2.5.1-3.8 0-.6-1-1.4-1.4-1.9-1.4-1.8-2.7-.4-.8-2.4 1.4-1.6 0-3.7 2.9-4.5-2.6-1.2-2.7 2.1-3.8 3.5-1.3 1.8-1.6 1.4-.2 3.3.4.6 1.9 1.4 1.8 2.2-.5 2.5-.8 2.5.5 4.9.7 1.7 2.4 2.3 2.9 3.2zM144.8 32.4c.5 3 2.6 4 5.4 4.6 1.7.3 4-.2 5.5.7.2.1 1 1.1 1.2 1.1.2-.1-.8-1.1-.9-1.2-3.3-3.2-7.9-1.7-11.2-5.2zM153.4 33.2c-1.1-.9-.6-1.5-1.4-2.1-.9-.6-1.9-.2-2.9-.2-.8 0-.4-.5.4 1 .4.8.9 1.2 1.8 1.3.7.1 1.9 0 2.1 0zM102.2 40.3c7.3-1 35.1-.2 33.5 13.9 4.7-20.6-28.5-15.2-33.5-13.9z"/><path class="st0" d="M111.3 36.2c8.6-1.8 21.6 1.2 27.7 8 2.1 2.3 1.6 3.4 1.6-.3 0-6.7-2.3-8.3-7.7-12.1-7-5-1.2.2 2 3.6 2.4 2.6 3.9 5.6 3 5-7.5-5.6-18.7-5.9-26.6-4.2zM136 31c1 4.8 7.8 6.9 9.2 10.9 0 .1-.3-3.9-1.8-5.6-1-1.1-1.2-2.8-1.2-4.3 0-1.1.3-2.1.8-3-2.2 1.5-1.2 7.6-.8 7.2.2 0-5-3.2-6.2-5.2z"/><path class="st0" d="M143.8 27.9c.2-.4.6-2.6 1.5-4 .6-1.1 2.1-2.1 1.8-1.9-1 1-20.9-7.1-41.2 16.8-.2.3 11.6-6.4 25.7-9.9 4-1 8.4-1.5 12.2-1z"/><path class="st0" d="M146.1 28.1c-1.4-3.7 1.1-5.8 3.4-7.2-.1.9-.6 1.7-.6 2.7 0 .2-.2 1.6-.4 1.3-.5-1-1.2.2-1.7.8-.4.5-.7 1.6-.7 2.4zM152.2 26.2c1.2-.6 2-1.8 2.5-2.9-1.2-.3-3.5-1.3-5.2-.5-.6 1.8.6 4.5 2.7 3.4z"/></svg>