<?xml version="1.0" encoding="utf-8"?><svg id="Layer_1" xmlns="http://www.w3.org/2000/svg" width="170" height="60" viewBox="0 0 170 60"><style>.st0{fill:#596974}</style><path class="st0" d="M119.1 44.3c-4.4 0-8.4-1.7-11.4-4.8l-4.4-4.4-9.6 5.5c-2.6 1.7-5.7 2.6-8.8 2.6-3.2 0-6.2-.9-8.8-2.6L66.5 35l-4.4 4.4c-3 3.1-7 4.7-11.3 4.8h-.1c-3.7 0-7.2-2.2-8.8-5.6l-8.4-14.5-.1-.1c-.3-.8-.5-1.6-.5-2.5 0-3.3 2.5-5.8 5.6-5.8 1.8 0 3.5.5 5 1.5L65.8 30l7.7-7.8c3-3.1 7.1-4.8 11.4-4.8 4.3 0 8.4 1.7 11.4 4.8L104 30l22.3-12.8c1.6-1 3.1-1.5 4.9-1.5 3.2 0 5.8 2.6 5.8 5.8 0 .8-.2 1.7-.5 2.4l-.1.2-8.3 14.5c-1.8 3.4-5.2 5.7-9 5.7zM106.9 33l3.6 3.7c2.3 2.3 5.3 3.6 8.5 3.6 2.3 0 4.4-1.4 5.3-3.4l.1-.1 8.3-14.4c.1-.2.1-.4.1-.7 0-1-.8-1.8-1.8-1.8-.7 0-1.4.1-2.1.5l-22 12.6zM37 22.3l8.4 14.5v.1c1 2.1 3.1 3.4 5.3 3.4 3.2 0 6.3-1.3 8.5-3.6l3.6-3.7-21.9-12.6c-.8-.4-1.6-.6-2.4-.6-1.1 0-1.6.9-1.6 1.8 0 .3 0 .4.1.7zm32.4 9.9l8.8 5.1c2 1.3 4.3 2 6.7 2s4.7-.7 6.7-2l.1-.1 8.7-5-6.9-7c-2.3-2.3-5.3-3.6-8.6-3.6-3.2 0-6.3 1.3-8.6 3.6l-6.9 7z"/></svg>